<svg width="49" height="49" viewBox="0 0 49 49" fill="none" xmlns="http://www.w3.org/2000/svg">
<path d="M46.5116 2.4884H2.48853V46.5117H46.5116V2.4884Z" fill="#F0DB4F"/>
<path d="M26.4459 36.8227C26.4459 41.107 23.9302 43.0625 20.2648 43.0625C16.9534 43.0625 15.0372 41.3528 14.0544 39.2795L17.4249 37.2453C18.0735 38.395 18.6631 39.3677 20.088 39.3677C21.444 39.3677 22.3089 38.8371 22.3089 36.7638V22.7018H26.4459V36.8227Z" fill="#323330"/>
<path d="M36.233 43.0625C32.3909 43.0625 29.9048 41.2347 28.696 38.8371L32.0666 36.8913C32.951 38.3359 34.1105 39.407 36.1446 39.407C37.8545 39.407 38.9548 38.5521 38.9548 37.3632C38.9548 35.9481 37.8347 35.4471 35.9383 34.6118L34.9065 34.1696C31.9192 32.9019 29.944 31.3001 29.944 27.9298C29.944 24.8245 32.3122 22.4661 35.997 22.4661C38.6306 22.4661 40.5173 23.3799 41.8734 25.7777L38.6502 27.8412C37.9428 26.5735 37.1763 26.0725 35.9873 26.0725C34.7786 26.0725 34.0121 26.8391 34.0121 27.8412C34.0121 29.0794 34.7786 29.5807 36.5572 30.3568L37.5889 30.799C41.1068 32.3025 43.0819 33.8455 43.0819 37.3044C43.0821 41.0186 40.1537 43.0625 36.233 43.0625Z" fill="#323330"/>
</svg>
