<svg width="49" height="49" viewBox="0 0 49 49" fill="none" xmlns="http://www.w3.org/2000/svg">
<g clip-path="url(#clip0_159_87)">
<path d="M14.7 14.7L16.0241 13.7437C15.6093 13.1694 14.8716 12.9279 14.1975 13.1459C13.5234 13.3639 13.0667 13.9916 13.0667 14.7H14.7ZM24.5 45.7333C12.7732 45.7333 3.26667 36.227 3.26667 24.5H0C0 38.0309 10.969 49 24.5 49V45.7333ZM45.7333 24.5C45.7333 36.227 36.227 45.7333 24.5 45.7333V49C38.0309 49 49 38.0309 49 24.5H45.7333ZM24.5 3.26667C36.227 3.26667 45.7333 12.7732 45.7333 24.5H49C49 10.969 38.0309 0 24.5 0V3.26667ZM24.5 0C10.969 0 0 10.969 0 24.5H3.26667C3.26667 12.7732 12.7732 3.26667 24.5 3.26667V0ZM16.3333 39.2V14.7H13.0667V39.2H16.3333ZM13.3759 15.6563L34.6094 45.0562L37.2573 43.1438L16.0241 13.7437L13.3759 15.6563ZM32.6667 13.0667V32.6667H35.9333V13.0667H32.6667Z" fill="black"/>
</g>
<defs>
<clipPath id="clip0_159_87">
<rect width="49" height="49" fill="white"/>
</clipPath>
</defs>
</svg>
