<svg width="57" height="65" viewBox="0 0 57 65" fill="none" xmlns="http://www.w3.org/2000/svg">
<g clip-path="url(#clip0_159_113)">
<path d="M28.4375 64.4922C27.5869 64.4922 26.7236 64.2637 25.9746 63.832L18.1416 59.1982C16.9736 58.5381 17.5449 58.3096 17.9258 58.1826C19.4873 57.6367 19.8047 57.5225 21.4678 56.5703C21.6455 56.4688 21.874 56.5068 22.0518 56.6211L28.0693 60.1885C28.2852 60.3154 28.5898 60.3154 28.793 60.1885L52.2412 46.6553C52.457 46.5283 52.5967 46.2744 52.5967 46.0205V18.9541C52.5967 18.6875 52.457 18.4463 52.2285 18.3066L28.793 4.78613C28.5771 4.65918 28.2852 4.65918 28.0693 4.78613L4.64648 18.3193C4.41797 18.4463 4.27832 18.7002 4.27832 18.9668V46.0205C4.27832 46.2744 4.41797 46.5283 4.64648 46.6426L11.0703 50.3496C14.5615 52.0889 16.6943 50.0449 16.6943 47.9756V21.2646C16.6943 20.8838 16.999 20.5918 17.3799 20.5918H20.3506C20.7188 20.5918 21.0361 20.8838 21.0361 21.2646V47.9883C21.0361 52.6348 18.4971 55.3008 14.0918 55.3008C12.7334 55.3008 11.667 55.3008 8.69629 53.8281L2.55176 50.2861C1.02832 49.4102 0.0888672 47.7725 0.0888672 46.0078V18.9541C0.0888672 17.2021 1.02832 15.5518 2.55176 14.6758L25.9746 1.14258C27.46 0.304687 29.4277 0.304687 30.9004 1.14258L54.3486 14.6885C55.8721 15.5645 56.8115 17.2021 56.8115 18.9668V46.0205C56.8115 47.7725 55.8721 49.4102 54.3486 50.2988L30.9004 63.832C30.1514 64.2637 29.3008 64.4922 28.4375 64.4922ZM47.3662 37.8193C47.3662 32.7539 43.9385 31.4082 36.7402 30.4561C29.4531 29.4912 28.7168 28.9961 28.7168 27.2949C28.7168 25.8857 29.3389 24.0068 34.7344 24.0068C39.5459 24.0068 41.3232 25.0478 42.0596 28.2978C42.123 28.6025 42.4023 28.8311 42.7197 28.8311H45.7666C45.957 28.8311 46.1348 28.7549 46.2617 28.6152C46.3887 28.4756 46.4521 28.2852 46.4394 28.0947C45.9697 22.4961 42.25 19.8936 34.7344 19.8936C28.0439 19.8936 24.0576 22.7119 24.0576 27.4473C24.0576 32.5762 28.0312 33.998 34.4424 34.6328C42.123 35.3818 42.7197 36.5117 42.7197 38.0225C42.7197 40.6377 40.6123 41.7549 35.6738 41.7549C29.4658 41.7549 28.1074 40.1934 27.6504 37.1084C27.5996 36.7783 27.3203 36.5371 26.9775 36.5371H23.9434C23.5625 36.5371 23.2705 36.8418 23.2705 37.21C23.2705 41.1582 25.416 45.8682 35.6865 45.8682C43.1006 45.8555 47.3662 42.9229 47.3662 37.8193Z" fill="black"/>
</g>
<defs>
<clipPath id="clip0_159_113">
<rect width="56.875" height="65" fill="white"/>
</clipPath>
</defs>
</svg>
