<svg width="58" height="58" viewBox="0 0 58 58" fill="none" xmlns="http://www.w3.org/2000/svg">
<path d="M21.9772 27.216H33.8778C37.1874 27.216 39.8284 24.4859 39.8284 21.1652V9.8105C39.8284 6.57915 37.1094 4.16105 33.8778 3.61503C29.8887 2.95755 25.5541 2.99097 21.9772 3.62602C16.9404 4.51754 16.0268 6.37853 16.0268 9.82171V12.2519H27.9386V15.8723H11.5585C8.09306 15.8723 5.06189 17.956 4.11485 21.9119C3.02282 26.4471 2.9783 29.2774 4.11485 34.0133C4.96175 37.5346 6.9786 40.0527 10.4441 40.0527H14.5337V34.6151C14.5336 30.6817 17.9322 27.216 21.9772 27.216Z" fill="#347AB4"/>
<path d="M53.8057 23.7179C52.9476 20.2747 51.3208 17.6783 47.8553 17.6783H43.3872V22.9602C43.3872 27.0609 39.9104 30.515 35.9435 30.515H24.0427C20.7888 30.515 18.0923 33.3011 18.0923 36.5658V47.9096C18.0923 51.1408 20.9003 53.0351 24.0427 53.9603C27.809 55.0633 31.4304 55.264 35.9434 53.9603C38.941 53.0909 41.8939 51.3417 41.8939 47.9096V45.531H30.0044V41.8588H47.8552C51.3208 41.8588 52.6022 39.4407 53.8056 35.8193C55.0537 32.0862 54.9981 28.4982 53.8057 23.7179Z" fill="#FFCA1D"/>
<path d="M21.2306 10.1493C20.0435 10.1493 19.0811 9.1761 19.0811 7.97838C19.0917 6.76989 20.0435 5.79669 21.2306 5.79669C22.407 5.79669 23.3802 6.78054 23.3802 7.97838C23.3801 9.1761 22.4176 10.1493 21.2306 10.1493Z" fill="white"/>
<path d="M35.6733 52.118C34.4862 52.118 33.5237 51.1448 33.5237 49.9471C33.5344 48.7386 34.4861 47.7654 35.6733 47.7654C36.8497 47.7654 37.8229 48.7492 37.8229 49.9471C37.8229 51.1448 36.8605 52.118 35.6733 52.118Z" fill="white"/>
</svg>
