<svg width="58" height="58" viewBox="0 0 58 58" fill="none" xmlns="http://www.w3.org/2000/svg">
<path d="M29 23.8307C28.3212 23.8307 27.649 23.9644 27.0218 24.2242C26.3947 24.484 25.8248 24.8647 25.3448 25.3447C24.8648 25.8247 24.484 26.3946 24.2242 27.0218C23.9645 27.6489 23.8308 28.3211 23.8308 28.9999C23.8308 29.6788 23.9645 30.351 24.2242 30.9781C24.484 31.6053 24.8648 32.1751 25.3448 32.6552C25.8248 33.1352 26.3947 33.5159 27.0218 33.7757C27.649 34.0355 28.3212 34.1692 29 34.1692C29.6788 34.1692 30.351 34.0355 30.9782 33.7757C31.6053 33.5159 32.1752 33.1352 32.6552 32.6552C33.1352 32.1751 33.516 31.6053 33.7758 30.9781C34.0355 30.351 34.1693 29.6788 34.1693 28.9999C34.1693 28.3211 34.0355 27.6489 33.7758 27.0218C33.516 26.3946 33.1352 25.8247 32.6552 25.3447C32.1752 24.8647 31.6053 24.484 30.9782 24.2242C30.351 23.9644 29.6788 23.8307 29 23.8307ZM14.5193 39.2829L13.3787 38.9929C4.87683 36.8444 0 33.1977 0 28.9903C0 24.7829 4.87683 21.1361 13.3787 18.9877L14.5193 18.7001L14.8407 19.8311C15.702 22.7981 16.8036 25.6899 18.1347 28.4779L18.3787 28.9927L18.1347 29.5074C16.8014 32.2945 15.6997 35.1865 14.8407 38.1543L14.5193 39.2829ZM12.8494 21.6291C6.38725 23.444 2.4215 26.2208 2.4215 28.9903C2.4215 31.7574 6.38725 34.5341 12.8494 36.3514C13.6397 33.8379 14.5939 31.3789 15.7059 28.9903C14.5927 26.6021 13.6384 24.1431 12.8494 21.6291ZM43.4807 39.2829L43.1592 38.1494C42.2989 35.1826 41.1964 32.2914 39.8629 29.505L39.6188 28.9903L39.8629 28.4755C41.1959 25.6881 42.2983 22.7961 43.1592 19.8287L43.4807 18.6977L44.6238 18.9853C53.1232 21.1337 58 24.7804 58 28.9903C58 33.2001 53.1232 36.8444 44.6238 38.9929L43.4807 39.2829ZM42.2941 28.9903C43.4541 31.5012 44.4135 33.9686 45.1506 36.3514C51.6152 34.5341 55.5785 31.7574 55.5785 28.9903C55.5785 26.2208 51.6128 23.4464 45.1506 21.6291C44.3613 24.143 43.4071 26.602 42.2941 28.9903ZM12.8325 21.617L12.5111 20.4884C10.121 12.0639 10.846 6.0271 14.5 3.91977C18.0839 1.8511 23.838 4.29435 29.8676 10.4834L30.6893 11.3269L29.8676 12.1703C27.7251 14.3975 25.7676 16.7955 24.0144 19.3405L23.6882 19.8069L23.1203 19.8553C20.0364 20.0984 16.9773 20.5914 13.9732 21.3294L12.8325 21.617ZM17.4145 5.59452C16.7668 5.59452 16.1941 5.73469 15.7108 6.0126C13.3086 7.39735 12.8833 12.2114 14.5387 18.7074C17.114 18.1344 19.7238 17.73 22.3517 17.4966C23.868 15.3407 25.5246 13.2869 27.3108 11.3486C23.5408 7.67769 19.9713 5.59452 17.4145 5.59452ZM40.5879 54.8027C40.5855 54.8027 40.5855 54.8027 40.5879 54.8027C37.1442 54.8027 32.7217 52.2096 28.1324 47.4971L27.3108 46.6537L28.1324 45.8103C30.2743 43.5823 32.2311 41.1835 33.9832 38.6376L34.3094 38.1712L34.8749 38.1229C37.9604 37.8811 41.0211 37.3889 44.0268 36.6511L45.1675 36.3635L45.4913 37.4945C47.8766 45.9142 47.154 51.9534 43.5 54.0584C42.6124 54.5602 41.6074 54.8171 40.5879 54.8027ZM30.6893 46.6319C34.4593 50.3029 38.0287 52.386 40.5855 52.386C41.2308 52.386 41.8083 52.2459 42.2893 51.9679C44.6914 50.5832 45.1192 45.7668 43.4613 39.2708C40.8854 39.8445 38.2746 40.2489 35.6458 40.4815C34.1314 42.639 32.4756 44.6936 30.6893 46.6319ZM45.1675 21.617L44.0268 21.3294C41.0215 20.5893 37.9607 20.0962 34.8749 19.8553L34.3094 19.8069L33.9832 19.3405C32.232 16.7947 30.2752 14.3966 28.1324 12.1703L27.3108 11.3269L28.1324 10.4834C34.1596 4.29677 39.9113 1.85352 43.5 3.91977C47.154 6.0271 47.879 12.0639 45.4913 20.486L45.1675 21.617ZM35.6458 17.4966C38.4057 17.7479 41.0277 18.1564 43.4613 18.7074C45.1192 12.2114 44.6914 7.39735 42.2893 6.0126C39.9016 4.63269 35.4138 6.74727 30.6893 11.3486C32.4746 13.287 34.1303 15.3407 35.6458 17.4966ZM17.4145 54.8027C16.3942 54.8175 15.3883 54.5606 14.5 54.0584C10.846 51.9534 10.121 45.9166 12.5111 37.4945L12.8301 36.3635L13.9708 36.6511C16.762 37.3544 19.8408 37.8498 23.1178 38.1229L23.6857 38.1712L24.0096 38.6376C25.763 41.1832 27.7205 43.582 29.8628 45.8103L30.6844 46.6537L29.8628 47.4971C25.2759 52.2096 20.8534 54.8027 17.4145 54.8027ZM14.5387 39.2708C12.8808 45.7668 13.3086 50.5832 15.7108 51.9679C18.096 53.3285 22.5813 51.2309 27.3108 46.6319C25.5253 44.6922 23.8688 42.6377 22.3517 40.4815C19.7237 40.2491 17.1138 39.8447 14.5387 39.2708ZM29 40.7884C27.0111 40.7884 24.9666 40.7014 22.9197 40.5323L22.3517 40.4839L22.0255 40.0175C20.8677 38.3539 19.7793 36.643 18.763 34.8894C17.7498 33.1343 16.8097 31.338 15.9452 29.505L15.7059 28.9903L15.9452 28.4755C16.8095 26.6425 17.7496 24.8462 18.763 23.0912C19.7635 21.3609 20.8631 19.6354 22.0255 17.963L22.3517 17.4966L22.9197 17.4483C26.9668 17.1051 31.0357 17.1051 35.0828 17.4483L35.6483 17.4966L35.9721 17.963C38.2901 21.2909 40.3248 24.8074 42.0548 28.4755L42.2989 28.9903L42.0548 29.505C40.3289 33.1753 38.294 36.6921 35.9721 40.0175L35.6483 40.4839L35.0828 40.5323C33.0358 40.7014 30.9889 40.7884 29 40.7884ZM23.6906 38.1688C27.2673 38.437 30.7328 38.437 34.3118 38.1688C36.31 35.2476 38.0841 32.1794 39.6188 28.9903C38.0868 25.7993 36.3118 22.7307 34.3094 19.8118C30.7749 19.5435 27.2251 19.5435 23.6906 19.8118C21.6874 22.7302 19.9123 25.7988 18.3812 28.9903C19.9176 32.179 21.6924 35.2472 23.6906 38.1688Z" fill="black"/>
</svg>
