<svg width="58" height="58" viewBox="0 0 58 58" fill="none" xmlns="http://www.w3.org/2000/svg">
<g clip-path="url(#clip0_159_84)">
<path d="M29.0003 9.66669C25.0333 9.66669 21.6226 10.7374 18.9455 13.0321C16.2876 15.3103 14.5488 18.6269 13.5843 22.7607C13.3737 23.6629 13.8328 24.5876 14.6787 24.9653C15.5246 25.343 16.5196 25.0676 17.0508 24.3087C18.2751 22.5597 19.4975 21.5088 20.6721 20.9695C21.8096 20.4471 23.0357 20.3413 24.4401 20.7175C25.8574 21.0971 26.9545 22.209 28.677 24.0822L28.7326 24.1428C30.031 25.555 31.6149 27.2778 33.7812 28.6144C36.0291 30.0014 38.8265 30.9333 42.5338 30.9333C46.5006 30.9333 49.9114 29.8626 52.5887 27.5679C55.2463 25.2897 56.9851 21.9731 57.9498 17.8393C58.1602 16.9371 57.7012 16.0124 56.8552 15.6347C56.0096 15.257 55.0143 15.5323 54.483 16.2913C53.2588 18.0403 52.0366 19.0912 50.8619 19.6305C49.7243 20.1529 48.4982 20.2587 47.0938 19.8825C45.6767 19.5029 44.5793 18.391 42.8571 16.5177L42.8014 16.4572C41.503 15.0449 39.9192 13.3222 37.7528 11.9856C35.5049 10.5986 32.7076 9.66669 29.0003 9.66669Z" fill="black"/>
<path d="M15.4669 27.0667C11.4998 27.0667 8.08918 28.1374 5.41202 30.4321C2.75411 32.7103 1.01536 36.0268 0.0507945 40.1608C-0.159715 41.0629 0.299343 41.9874 1.14525 42.3652C1.99116 42.7429 2.98613 42.4676 3.5174 41.7086C4.74169 39.9597 5.9641 38.9087 7.13864 38.3694C8.27614 37.8471 9.50222 37.7413 10.9067 38.1175C12.324 38.4971 13.4211 39.609 15.1435 41.4824L15.1992 41.5427C16.4975 42.9548 18.0815 44.6778 20.2478 46.0145C22.4957 47.4015 25.2929 48.3334 29.0002 48.3334C32.9673 48.3334 36.3779 47.2627 39.0553 44.9678C41.7128 42.6896 43.4517 39.3731 44.4164 35.2393C44.6268 34.3371 44.1678 33.4124 43.3218 33.0346C42.4761 32.6569 41.4808 32.9323 40.9495 33.6913C39.7254 35.4403 38.503 36.4911 37.3285 37.0305C36.191 37.5528 34.9649 37.6586 33.5604 37.2825C32.1432 36.9028 31.046 35.791 29.3236 33.9177L29.2679 33.8571C27.9696 32.4449 26.3857 30.7221 24.2193 29.3855C21.9714 27.9986 19.1741 27.0667 15.4669 27.0667Z" fill="black"/>
</g>
<defs>
<clipPath id="clip0_159_84">
<rect width="58" height="58" fill="white"/>
</clipPath>
</defs>
</svg>
