<svg width="53" height="53" viewBox="0 0 53 53" fill="none" xmlns="http://www.w3.org/2000/svg">
<g clip-path="url(#clip0_159_115)">
<path d="M47.8237 0H5.17633C2.31875 0 0 2.31875 0 5.17633V47.8237C0 50.6812 2.31875 53 5.17633 53H47.8237C50.6812 53 53 50.6812 53 47.8237V5.17633C53 2.31875 50.6812 0 47.8237 0ZM30.7444 29.4062H24.0973V48.3404H18.8305V29.4062H12.2143V25.1529H30.7444V29.4062ZM47.9164 44.9837C46.8851 46.8277 44.9904 47.8656 42.9742 48.2962C40.6333 48.7953 38.1445 48.7688 35.7971 48.3294C34.6465 48.113 33.6506 47.7905 32.8092 47.3577V42.1747C33.75 42.9631 34.7702 43.555 35.8722 43.948C36.9741 44.3433 38.0871 44.5399 39.209 44.5399C40.2027 44.5399 41.3091 44.4162 42.1659 43.8685C42.7533 43.4931 43.1464 42.9013 43.1464 42.1924C43.1464 41.2274 42.4486 40.4986 41.6955 39.9907C40.5936 39.2487 39.3282 38.7651 38.107 38.2572C36.2917 37.5019 34.9403 36.5788 34.0481 35.4879C32.4978 33.591 32.2439 30.5611 33.4408 28.419C34.4632 26.5905 36.347 25.5129 38.3345 25.0337C40.5008 24.5125 42.8527 24.5125 45.05 24.8548C45.9841 25.0005 46.8454 25.2236 47.6337 25.5261V30.369C47.2451 30.0996 46.8211 29.8611 46.3617 29.6579C45.4563 29.2538 44.478 28.98 43.4953 28.8475C42.5126 28.715 41.4769 28.6929 40.5075 28.9203C39.7434 29.097 38.9395 29.4525 38.4979 30.1349C38.3146 30.422 38.2218 30.7422 38.2218 31.0977C38.2218 31.4864 38.3234 31.8353 38.5288 32.1423C39.0477 32.9218 39.962 33.4231 40.7813 33.8272C42.2211 34.5339 43.7316 35.0639 45.114 35.8832C46.4567 36.676 47.6492 37.7802 48.2322 39.2509C48.5127 39.9576 48.654 40.7813 48.654 41.7198C48.6518 43.0161 48.4067 44.1048 47.9164 44.9837Z" fill="black"/>
</g>
<defs>
<clipPath id="clip0_159_115">
<rect width="53" height="53" fill="white"/>
</clipPath>
</defs>
</svg>
