<svg width="40" height="40" viewBox="0 0 40 40" fill="none" xmlns="http://www.w3.org/2000/svg">
<g clip-path="url(#clip0_165_164)">
<path d="M17.4752 0.717598C8.51788 1.3521 1.3618 8.52095 0.728428 17.4944C0.678945 18.1946 1.23082 18.7907 1.93149 18.7907H17.5637C18.2297 18.7907 18.7697 18.2498 18.7697 17.5827V1.92267C18.7697 1.22081 18.1746 0.668312 17.4756 0.717598H17.4752ZM39.2718 17.598C38.6385 8.6246 31.4824 1.45574 22.525 0.821312C21.826 0.771669 21.231 1.32453 21.231 2.02645V17.6866C21.231 18.3539 21.7709 18.8948 22.4369 18.8948H38.0689C38.7696 18.8948 39.3211 18.2986 39.2719 17.5984L39.2718 17.598ZM37.7194 21.0557C28.7619 21.6902 21.6059 28.8591 20.9726 37.8325C20.9231 38.5327 21.475 39.1289 22.1756 39.1289H37.8078C38.4739 39.1289 39.0138 38.588 39.0138 37.9208V22.2608C39.0138 21.559 38.4188 21.0065 37.7197 21.0557L37.7194 21.0557ZM0.728854 22.5057C1.36222 31.4791 8.5183 38.6479 17.4757 39.2824C18.1747 39.332 18.7698 38.7791 18.7698 38.0772V22.417C18.7698 21.7497 18.2298 21.2088 17.5639 21.2088H1.93171C1.2311 21.2088 0.679589 21.805 0.728715 22.5052L0.728854 22.5057Z" fill="#111111"/>
</g>
<defs>
<clipPath id="clip0_165_164">
<rect width="40" height="40" fill="white"/>
</clipPath>
</defs>
</svg>
