<svg width="71" height="29" viewBox="0 0 71 29" fill="none" xmlns="http://www.w3.org/2000/svg">
<g clip-path="url(#clip0_165_157)">
<path d="M12.4561 2.01805C6.4733 2.44106 1.69362 7.22074 1.27062 13.2035C1.23755 13.6704 1.60618 14.0679 2.07413 14.0679H12.5151C12.6209 14.0679 12.7257 14.0471 12.8234 14.0066C12.9212 13.9662 13.01 13.9068 13.0848 13.8321C13.1596 13.7573 13.2189 13.6685 13.2594 13.5707C13.2999 13.473 13.3207 13.3682 13.3207 13.2625V2.82145C13.3207 2.35349 12.9232 1.98499 12.4564 2.01805H12.4561ZM27.1991 13.2731C26.7761 7.2903 21.9964 2.51062 16.0136 2.08762C15.5467 2.05455 15.1492 2.42318 15.1492 2.89101V13.3321C15.1492 13.4379 15.17 13.5427 15.2105 13.6404C15.2509 13.7382 15.3103 13.827 15.3851 13.9018C15.4599 13.9766 15.5487 14.0359 15.6464 14.0764C15.7441 14.1169 15.8489 14.1377 15.9547 14.1377H26.3955C26.8635 14.1377 27.232 13.7402 27.1989 13.2734L27.1991 13.2731ZM26.1603 15.7602C20.1775 16.1832 15.3978 20.9629 14.9748 26.9457C14.9417 27.4125 15.3104 27.8101 15.7783 27.8101H26.2193C26.3251 27.8101 26.4299 27.7893 26.5276 27.7488C26.6253 27.7083 26.7141 27.649 26.7889 27.5742C26.8638 27.4994 26.9231 27.4106 26.9636 27.3129C27.0041 27.2151 27.0249 27.1104 27.0249 27.0046V16.5636C27.0249 16.0956 26.6274 15.7271 26.1605 15.7602H26.1603ZM1.27086 16.7292C1.69387 22.712 6.47355 27.4916 12.4564 27.9146C12.9232 27.9477 13.3207 27.5791 13.3207 27.1111V16.6701C13.3207 16.5643 13.2999 16.4596 13.2595 16.3618C13.219 16.2641 13.1597 16.1753 13.0849 16.1005C13.0101 16.0257 12.9213 15.9663 12.8235 15.9259C12.7258 15.8854 12.6211 15.8645 12.5153 15.8645H2.07437C1.60655 15.8645 1.23804 16.2621 1.27098 16.7289L1.27086 16.7292Z" fill="black"/>
<path d="M32.7913 26.7673C32.2769 26.7673 31.8503 26.7207 31.5115 26.6276C31.1735 26.5337 30.9024 26.417 30.6983 26.2774C30.4934 26.1378 30.3362 25.999 30.2268 25.861C30.1909 25.8087 30.1586 25.7581 30.1301 25.7091C30.1015 25.661 30.0811 25.6067 30.0688 25.5462C30.0525 25.4646 30.0366 25.3581 30.0211 25.2266C30.0047 25.0952 30.0027 24.9425 30.015 24.7686C30.019 24.6951 30.0329 24.6445 30.0566 24.6167C30.0852 24.5841 30.1317 24.5596 30.1962 24.5432C30.3138 24.5147 30.4669 24.4893 30.6555 24.4673C30.8441 24.4453 30.9788 24.4342 31.0596 24.4342C31.1445 24.4342 31.2131 24.4502 31.2653 24.482C31.3184 24.5147 31.3813 24.5694 31.454 24.6461C31.5348 24.731 31.6748 24.8396 31.874 24.9719C32.0724 25.1033 32.3782 25.169 32.7913 25.169C33.1881 25.169 33.4877 25.0862 33.6902 24.9204C33.8927 24.7539 33.9939 24.5228 33.9939 24.2273C33.9939 24.0697 33.9462 23.9207 33.8507 23.7803C33.7559 23.6406 33.5829 23.501 33.3314 23.3614C33.0807 23.2218 32.7223 23.0748 32.2561 22.9205C31.487 22.6617 30.9322 22.34 30.5918 21.9555C30.2513 21.5701 30.0811 21.0353 30.0811 20.3512C30.0811 19.7837 30.2187 19.3098 30.4938 18.9293C30.7698 18.5488 31.1506 18.2614 31.6364 18.0671C32.1222 17.8728 32.6831 17.7756 33.3191 17.7756C33.8098 17.7756 34.216 17.8332 34.5377 17.9483C34.8594 18.0634 35.1096 18.1929 35.2884 18.3366C35.4664 18.4811 35.5815 18.5978 35.6338 18.6868C35.6664 18.7391 35.6877 18.7783 35.6975 18.8044C35.7081 18.8313 35.7154 18.8668 35.7195 18.9109C35.7318 19.0367 35.7358 19.1767 35.7318 19.331C35.7277 19.4845 35.7134 19.6584 35.6889 19.8527C35.6767 19.918 35.6542 19.9625 35.6215 19.9862C35.5938 20.0066 35.5493 20.0168 35.488 20.0168C35.0953 20.025 34.7916 20.0046 34.5769 19.9556C34.492 19.936 34.4352 19.916 34.4067 19.8956C34.3789 19.8752 34.3426 19.8429 34.2977 19.7988C34.2332 19.7213 34.1307 19.631 33.9903 19.5282C33.8506 19.4245 33.6269 19.3726 33.3191 19.3726C32.8938 19.3726 32.5921 19.469 32.4141 19.6617C32.2361 19.8543 32.1471 20.0699 32.1471 20.3083C32.1471 20.5916 32.2786 20.8133 32.5415 20.9733C32.8052 21.1333 33.2203 21.3146 33.787 21.517C34.2613 21.6836 34.6683 21.864 35.008 22.0584C35.3484 22.2527 35.6089 22.5017 35.7893 22.8054C35.9698 23.1091 36.06 23.51 36.06 24.008C36.06 24.6277 35.9171 25.1421 35.6313 25.5511C35.3456 25.961 34.9565 26.2659 34.4642 26.466C33.9727 26.6668 33.4151 26.7673 32.7913 26.7673ZM41.3457 19.5061V26.2994C41.3457 26.4211 41.3204 26.5052 41.2698 26.5517C41.2191 26.5982 41.133 26.6215 41.0114 26.6215H39.7169C39.5952 26.6215 39.5091 26.5982 39.4585 26.5517C39.4078 26.5052 39.3825 26.4211 39.3825 26.2994V19.5061H37.5725C37.4753 19.5061 37.4022 19.4902 37.3532 19.4584C37.2479 19.3849 37.1397 19.2975 37.0287 19.1963C36.9168 19.095 36.7964 18.9738 36.6674 18.8325C36.6266 18.7795 36.6062 18.737 36.6062 18.7052C36.6062 18.6684 36.6266 18.6276 36.6674 18.5827C36.7964 18.4415 36.9168 18.3202 37.0287 18.219C37.1397 18.1177 37.2479 18.0304 37.3532 17.9569C37.4104 17.9251 37.4835 17.9091 37.5725 17.9091H43.1619C43.2591 17.9091 43.3321 17.9251 43.3811 17.9569C43.4864 18.0304 43.5954 18.1177 43.7081 18.219C43.8216 18.3202 43.9412 18.4415 44.0669 18.5827C44.1077 18.6358 44.1282 18.6786 44.1282 18.7113C44.1282 18.7472 44.1077 18.7876 44.0669 18.8325C43.9412 18.9738 43.8216 19.095 43.7081 19.1963C43.5954 19.2975 43.4864 19.3849 43.3811 19.4584C43.324 19.4902 43.2509 19.5061 43.1619 19.5061H41.3457ZM49.6564 26.6215H46.6008C46.1836 26.6215 45.8664 26.5689 45.6492 26.4635C45.4329 26.3582 45.2871 26.1859 45.212 25.9467C45.1369 25.7075 45.0993 25.3895 45.0993 24.9927V19.5367C45.0993 19.1318 45.1369 18.8109 45.212 18.5741C45.2871 18.3374 45.4329 18.1671 45.6492 18.0634C45.8664 17.9606 46.1836 17.9091 46.6008 17.9091H49.4555C49.5535 17.9091 49.6266 17.9251 49.6747 17.9569C49.7801 18.0304 49.8895 18.1177 50.003 18.219C50.1164 18.3202 50.236 18.4415 50.3618 18.5827C50.4018 18.6358 50.4218 18.6786 50.4218 18.7113C50.4218 18.7472 50.4018 18.7876 50.3618 18.8325C50.236 18.9738 50.1164 19.095 50.003 19.1963C49.8895 19.2975 49.7801 19.3849 49.6747 19.4584C49.6184 19.4902 49.5453 19.5061 49.4555 19.5061H47.7544C47.4875 19.5061 47.3054 19.5629 47.2082 19.6764C47.1111 19.7898 47.0625 19.9846 47.0625 20.2605V21.4387H49.2436C49.3408 21.4387 49.4135 21.455 49.4616 21.4877C49.567 21.5603 49.6764 21.6473 49.7899 21.7485C49.9034 21.8498 50.023 21.9714 50.1487 22.1135C50.1895 22.1657 50.2099 22.2082 50.2099 22.2408C50.2099 22.2768 50.1895 22.3172 50.1487 22.3621C50.023 22.5041 49.9034 22.6258 49.7899 22.727C49.6764 22.8283 49.567 22.9152 49.4616 22.9879C49.4053 23.0205 49.3326 23.0369 49.2436 23.0369H47.0625V24.264C47.0625 24.5351 47.1111 24.7294 47.2082 24.847C47.3054 24.9645 47.4875 25.0233 47.7544 25.0233H49.6564C49.7535 25.0233 49.8266 25.0396 49.8756 25.0723C49.9809 25.145 50.0903 25.2319 50.2038 25.3331C50.3173 25.4344 50.4365 25.556 50.5614 25.6981C50.6022 25.7504 50.6226 25.7928 50.6226 25.8255C50.6226 25.8614 50.6022 25.9018 50.5614 25.9467C50.4365 26.0888 50.3173 26.2104 50.2038 26.3117C50.0903 26.4129 49.9809 26.4999 49.8756 26.5725C49.8184 26.6052 49.7454 26.6215 49.6564 26.6215ZM55.2642 26.6215H53.399C52.9818 26.6215 52.665 26.5689 52.4486 26.4635C52.2315 26.3582 52.0857 26.1859 52.0114 25.9467C51.9363 25.7075 51.8988 25.3895 51.8988 24.9927V19.5367C51.8988 19.1318 51.9363 18.8109 52.0114 18.5741C52.0857 18.3374 52.2315 18.1671 52.4486 18.0634C52.665 17.9606 52.9818 17.9091 53.399 17.9091H55.2642C56.1353 17.9091 56.8979 18.0385 57.5519 18.2974C58.2059 18.557 58.7153 18.9954 59.0803 19.6127C59.4444 20.2307 59.6265 21.0782 59.6265 22.1551C59.6265 23.2328 59.4444 24.0987 59.0803 24.7527C58.7153 25.4066 58.2059 25.8814 57.5519 26.177C56.8979 26.4733 56.1353 26.6215 55.2642 26.6215ZM54.8208 19.5061H54.5539C54.2861 19.5061 54.1036 19.5629 54.0064 19.6764C53.9093 19.7898 53.8607 19.9846 53.8607 20.2605V24.2701C53.8607 24.5412 53.9093 24.7355 54.0064 24.8531C54.1036 24.9706 54.2861 25.0294 54.5539 25.0294H54.8331C55.6993 25.0294 56.3705 24.8167 56.8465 24.3914C57.3225 23.966 57.5605 23.2287 57.5605 22.1796C57.5605 21.4791 57.4523 20.9353 57.2359 20.5483C57.0187 20.1613 56.7056 19.8911 56.2966 19.7376C55.8875 19.5833 55.3956 19.5061 54.8208 19.5061ZM65.0212 23.5231V26.2994C65.0212 26.4211 64.9959 26.5052 64.9453 26.5517C64.8947 26.5982 64.8085 26.6215 64.6869 26.6215H63.3936C63.272 26.6215 63.1858 26.5982 63.1352 26.5517C63.0846 26.5052 63.0593 26.4211 63.0593 26.2994V23.5586L61.8505 22.1551C61.5623 21.8195 61.3202 21.5179 61.1243 21.2501C60.9275 20.9831 60.7805 20.7067 60.6834 20.421C60.5862 20.1352 60.5377 19.8 60.5377 19.4155V18.8803C60.5377 18.7636 60.5581 18.6746 60.5989 18.6133C60.781 18.3463 61.0361 18.0651 61.3643 17.7695C61.4247 17.7205 61.4794 17.696 61.5284 17.696C61.5766 17.696 61.6272 17.7205 61.6803 17.7695C61.8583 17.923 62.0081 18.0696 62.1297 18.2092C62.2514 18.3488 62.3567 18.4835 62.4457 18.6133C62.4857 18.6786 62.5057 18.7676 62.5057 18.8803V19.4094C62.5057 19.6723 62.5829 19.9637 62.7372 20.2838C62.8915 20.6038 63.1507 20.9566 63.5149 21.3419L64.1039 21.9616L64.6807 21.3419C65.009 20.9892 65.2592 20.6528 65.4315 20.3328C65.6038 20.0127 65.6899 19.707 65.6899 19.4155V18.8803C65.6899 18.7636 65.7103 18.6746 65.7511 18.6133C65.925 18.3504 66.172 18.0692 66.4921 17.7695C66.5525 17.7205 66.6031 17.696 66.6439 17.696C66.6921 17.696 66.7427 17.7205 66.7958 17.7695C66.9656 17.923 67.1105 18.0696 67.2305 18.2092C67.3497 18.3488 67.4518 18.4835 67.5367 18.6133C67.5775 18.6786 67.5979 18.7676 67.5979 18.8803V19.4155C67.5979 19.8613 67.5008 20.2875 67.3065 20.6941C67.1113 21.1015 66.7811 21.5644 66.3157 22.0828L65.0212 23.5231Z" fill="black"/>
</g>
<defs>
<clipPath id="clip0_165_157">
<rect width="71" height="28.7048" fill="white"/>
</clipPath>
</defs>
</svg>
